# xmcd
#
# Track frame offsets:
#	183
#	14658
#	24520
#	44508
#	56970
#	66833
#	79858
#	97233
#	108445
#	124458
#	147895
#	172658
#	192095
#	207513
#	225303
#	245598
#	255873
#
# Disc length: 3783 seconds
#
# Revision: 1
# Processed by: cddbd v1.5.1PL2 Copyright (c) Steve Scherf et al.
# Submitted via: audiograbber 1.83.01
#
DISCID=f00ec511
DTITLE=Glen Campbell - Rhinestone Cowboy
DYEAR=1900
DGENRE=
TTITLE0=Rhinestone Cowboy
TTITLE1=Gentle on my Mind
TTITLE2=Wichita Lineman,Galveston,Country Boy
TTITLE3=By the Time I get to Phoenix
TTITLE4=Dreams of the Everyday Housewife
TTITLE5=Heartache Number Three
TTITLE6=Please Come to Boston
TTITLE7=It's Only Make Believe
TTITLE8=Crying
TTITLE9=Blue Grass Medley
TTITLE10=Milk Cow Blues
TTITLE11=Rollin (In my sweet baby's arms)
TTITLE12=I'm So Lonesome I Could Cry
TTITLE13=Southern Nights
TTITLE14=Amazing grace
TTITLE15=Try A Little Kindness
TTITLE16=Mull of Kintyre
EXTD=
EXTT0=
EXTT1=
EXTT2=
EXTT3=
EXTT4=
EXTT5=
EXTT6=
EXTT7=
EXTT8=
EXTT9=
EXTT10=
EXTT11=
EXTT12=
EXTT13=
EXTT14=
EXTT15=
EXTT16=
PLAYORDER=
